<svg aria-hidden="true" style="width: 0; height: 0;" xmlns="http://www.w3.org/2000/svg" xmlns:xlink="http://www.w3.org/1999/xlink">
<defs>
    <symbol id="icon-facebook" viewBox="0 0 24 24">
        <path d="M22 12C22 6.47768 17.5223 2 12 2C6.47768 2 2 6.47768 2 12C2 16.9911 5.65625 21.1281 10.4375 21.879V14.8915H7.89777V12H10.4375V9.79687C10.4375 7.29107 11.9308 5.9058 14.2147 5.9058C15.3089 5.9058 16.4536 6.10134 16.4536 6.10134V8.5625H15.192C13.9504 8.5625 13.5621 9.33304 13.5621 10.125V12H16.3353L15.8924 14.8915H13.5625V21.8799C18.3438 21.1295 22 16.9924 22 12Z"></path>
    </symbol>
    <symbol id="icon-telegram" viewBox="0 0 24 24">
            <path
                d="M2 12C2 17.5228 6.47717 22 12 22C17.5228 22 22 17.5228 22 12C22 6.47717 17.5228 2 12 2C6.47717 2 2 6.47717 2 12ZM10.1667 16.5833L10.3368 14.0343L10.3367 14.0342L14.9737 9.84958C15.1772 9.66896 14.9293 9.58087 14.6591 9.74471L8.93638 13.3551L6.46446 12.5836C5.93062 12.4202 5.92679 12.0533 6.58429 11.7896L16.2168 8.07537C16.6567 7.87562 17.0814 8.18104 16.9134 8.85438L15.273 16.5846C15.1585 17.134 14.8265 17.2653 14.3667 17.0116L11.8678 15.1654L10.6667 16.3333C10.6629 16.337 10.6591 16.3407 10.6554 16.3443C10.521 16.4751 10.4099 16.5833 10.1667 16.5833Z"/></path>
    </symbol>
    <symbol id="icon-zalo" viewBox="0 0 24 24">
        <path
                  d="M11.3333 11.6527C11.155 11.5569 10.9491 11.5259 10.7505 11.5651C10.552 11.6042 10.3732 11.7111 10.2446 11.8673C10.0744 12.1255 9.98624 12.4292 9.99171 12.7384C9.99719 13.0476 10.096 13.348 10.2753 13.6C10.3923 13.7616 10.5628 13.8764 10.7565 13.9241C10.9502 13.9719 11.1546 13.9494 11.3333 13.8607C11.5251 13.7509 11.6817 13.5887 11.7849 13.3933C11.8881 13.1978 11.9335 12.977 11.916 12.7567C11.9282 12.5371 11.8804 12.3183 11.7778 12.1238C11.6751 11.9293 11.5215 11.7665 11.3333 11.6527V11.6527ZM11.3333 11.6527C11.155 11.5569 10.9491 11.5259 10.7505 11.5651C10.552 11.6042 10.3732 11.7111 10.2446 11.8673C10.0744 12.1255 9.98624 12.4292 9.99171 12.7384C9.99719 13.0476 10.096 13.348 10.2753 13.6C10.3923 13.7616 10.5628 13.8764 10.7565 13.9241C10.9502 13.9719 11.1546 13.9494 11.3333 13.8607C11.5251 13.7509 11.6817 13.5887 11.7849 13.3933C11.8881 13.1978 11.9335 12.977 11.916 12.7567C11.9282 12.5371 11.8804 12.3183 11.7778 12.1238C11.6751 11.9293 11.5215 11.7665 11.3333 11.6527V11.6527ZM12.0846 2.1C6.02796 2.1 1.10596 6.562 1.10596 12.0667C1.11915 13.3114 1.37787 14.5413 1.86727 15.6859C2.35667 16.8305 3.06714 17.8672 3.95796 18.7367V18.7367L4.12662 18.89C4.24024 19.0488 4.30133 19.2391 4.30133 19.4343C4.30133 19.6296 4.24024 19.8199 4.12662 19.9787C3.68101 20.6663 3.06928 21.2306 2.34796 21.6193C2.32203 21.6319 2.30017 21.6515 2.28487 21.6759C2.26957 21.7003 2.26146 21.7285 2.26146 21.7573C2.26146 21.7861 2.26957 21.8144 2.28487 21.8388C2.30017 21.8632 2.32203 21.8828 2.34796 21.8953C3.37173 22.0691 4.42195 22.0008 5.41462 21.696C6.33383 21.225 7.39912 21.1262 8.38929 21.42V21.42C9.5682 21.8021 10.7993 21.9987 12.0386 22.0027C18.172 22.0027 23.0326 17.5407 23.0326 12.036C23.0326 6.53134 18.172 2.1 12.0846 2.1ZM7.91396 15.1333H4.47929C4.32312 15.1523 4.16473 15.1281 4.02142 15.0632C3.8781 14.9983 3.75537 14.8952 3.66662 14.7653C3.59106 14.599 3.56675 14.4139 3.59679 14.2336C3.62683 14.0534 3.70986 13.8862 3.83529 13.7533L6.30396 10.3953C6.41467 10.2896 6.48514 10.1487 6.50329 9.99667H4.67862C4.5159 10.0199 4.35068 10.0199 4.18796 9.99667C4.11048 9.99111 4.03496 9.9697 3.96609 9.93376C3.89723 9.89783 3.83647 9.84813 3.7876 9.78776C3.73872 9.72738 3.70276 9.65761 3.68195 9.58277C3.66115 9.50793 3.65593 9.42961 3.66662 9.35267C3.65798 9.27318 3.66623 9.19276 3.69085 9.11668C3.71546 9.04061 3.75588 8.97059 3.80945 8.91123C3.86302 8.85187 3.92853 8.80451 4.00169 8.77224C4.07485 8.73997 4.154 8.72353 4.23396 8.724C5.44529 8.724 6.67196 8.724 7.89862 8.724C8.01257 8.7291 8.12324 8.76366 8.21983 8.82432C8.31643 8.88498 8.39563 8.96966 8.4497 9.07009C8.50378 9.17051 8.53088 9.28325 8.52835 9.39728C8.52583 9.51131 8.49376 9.62274 8.43529 9.72067C8.27553 10.0397 8.08555 10.3426 7.86796 10.6253L5.44529 13.7993H7.82196C8.17462 13.7993 8.51196 13.7993 8.60396 14.3053C8.69596 14.8113 8.46596 15.1333 7.91396 15.1333ZM13.3573 14.3053C13.3573 14.658 13.3573 14.9647 12.9586 15.1333C12.8105 15.2158 12.6368 15.2395 12.472 15.1998C12.3072 15.16 12.1634 15.0596 12.0693 14.9187C12.0693 14.9187 11.962 14.8267 11.8546 14.9187C11.5839 15.0979 11.2737 15.2088 10.9507 15.2419C10.6277 15.275 10.3014 15.2293 9.99995 15.1087C9.69847 14.9881 9.43072 14.7962 9.21964 14.5495C9.00855 14.3027 8.86043 14.0085 8.78796 13.692C8.62939 13.2376 8.58842 12.7504 8.66885 12.2758C8.74928 11.8013 8.9485 11.3548 9.24796 10.978C9.40492 10.7658 9.60433 10.5886 9.83351 10.4577C10.0627 10.3268 10.3166 10.2451 10.5791 10.2177C10.8416 10.1903 11.107 10.2178 11.3582 10.2985C11.6095 10.3793 11.8412 10.5115 12.0386 10.6867C12.284 10.4107 12.5446 10.1653 12.9586 10.334C13.3726 10.5027 13.434 10.8707 13.434 11.2693L13.3573 14.3053ZM15.3813 14.4127C15.3813 14.9187 15.1206 15.2253 14.676 15.2253C14.2313 15.2253 13.986 14.9187 13.986 14.3973C13.986 12.588 13.986 10.794 13.986 8.98467C13.986 8.448 14.2313 8.172 14.6606 8.15667C15.09 8.14134 15.366 8.448 15.3813 9V14.4127ZM19.4293 15.0107C19.0697 15.24 18.6521 15.3618 18.2256 15.3618C17.7991 15.3618 17.3815 15.24 17.022 15.0107C16.4529 14.6076 16.0575 14.004 15.9153 13.3214C15.7731 12.6387 15.8945 11.9275 16.2553 11.3307C16.5795 10.797 17.102 10.4134 17.7083 10.264C18.3147 10.1146 18.9555 10.2114 19.4906 10.5333C19.8719 10.7671 20.1819 11.1007 20.3873 11.498C20.5927 11.8952 20.6856 12.3411 20.656 12.7873C20.6819 13.238 20.5807 13.6868 20.3638 14.0826C20.1469 14.4785 19.8231 14.8054 19.4293 15.026V15.0107ZM18.7546 11.6833C18.5736 11.5593 18.3521 11.5093 18.1354 11.5435C17.9186 11.5777 17.7233 11.6936 17.5893 11.8673C17.4112 12.124 17.3158 12.4289 17.3158 12.7413C17.3158 13.0537 17.4112 13.3587 17.5893 13.6153C17.7281 13.7871 17.9259 13.9012 18.1441 13.9352C18.3624 13.9692 18.5855 13.9208 18.77 13.7993C18.9363 13.6806 19.069 13.5206 19.155 13.3351C19.2411 13.1497 19.2774 12.9451 19.2606 12.7413C19.2716 12.5389 19.2309 12.337 19.1424 12.1546C19.0538 11.9722 18.9204 11.8153 18.7546 11.6987V11.6833ZM11.3333 11.6527C11.155 11.5569 10.9491 11.5259 10.7505 11.5651C10.552 11.6042 10.3732 11.7111 10.2446 11.8673C10.0744 12.1255 9.98624 12.4292 9.99171 12.7384C9.99719 13.0476 10.096 13.348 10.2753 13.6C10.3923 13.7616 10.5628 13.8764 10.7565 13.9241C10.9502 13.9719 11.1546 13.9494 11.3333 13.8607C11.5251 13.7509 11.6817 13.5887 11.7849 13.3933C11.8881 13.1978 11.9335 12.977 11.916 12.7567C11.9282 12.5371 11.8804 12.3183 11.7778 12.1238C11.6751 11.9293 11.5215 11.7665 11.3333 11.6527V11.6527ZM11.3333 11.6527C11.155 11.5569 10.9491 11.5259 10.7505 11.5651C10.552 11.6042 10.3732 11.7111 10.2446 11.8673C10.0744 12.1255 9.98624 12.4292 9.99171 12.7384C9.99719 13.0476 10.096 13.348 10.2753 13.6C10.3923 13.7616 10.5628 13.8764 10.7565 13.9241C10.9502 13.9719 11.1546 13.9494 11.3333 13.8607C11.5251 13.7509 11.6817 13.5887 11.7849 13.3933C11.8881 13.1978 11.9335 12.977 11.916 12.7567C11.9282 12.5371 11.8804 12.3183 11.7778 12.1238C11.6751 11.9293 11.5215 11.7665 11.3333 11.6527V11.6527ZM11.3333 11.6527C11.155 11.5569 10.9491 11.5259 10.7505 11.5651C10.552 11.6042 10.3732 11.7111 10.2446 11.8673C10.0744 12.1255 9.98624 12.4292 9.99171 12.7384C9.99719 13.0476 10.096 13.348 10.2753 13.6C10.3923 13.7616 10.5628 13.8764 10.7565 13.9241C10.9502 13.9719 11.1546 13.9494 11.3333 13.8607C11.5251 13.7509 11.6817 13.5887 11.7849 13.3933C11.8881 13.1978 11.9335 12.977 11.916 12.7567C11.9282 12.5371 11.8804 12.3183 11.7778 12.1238C11.6751 11.9293 11.5215 11.7665 11.3333 11.6527V11.6527Z"/></path>
    </symbol>
    <symbol id="icon-phone" viewBox="0 0 24 24">
            <path
                d="M6.86007 11.8174C7.4533 12.8865 8.13629 13.914 9.02438 14.8505C9.91443 15.7933 11.0206 16.6503 12.4547 17.3817C12.561 17.4336 12.6621 17.4336 12.7519 17.3982C12.8881 17.3458 13.0271 17.2336 13.1641 17.0963C13.2703 16.9904 13.4018 16.8211 13.5404 16.6357C14.0911 15.9098 14.7741 15.0103 15.7374 15.4602C15.7586 15.4701 15.7748 15.4811 15.796 15.4909L19.0106 17.3395C19.0193 17.3443 19.0315 17.3561 19.0409 17.3604C19.4653 17.6521 19.6393 18.1021 19.644 18.6107C19.644 19.1295 19.4531 19.7121 19.1732 20.205C18.8032 20.8545 18.2572 21.2847 17.6281 21.5705C17.0297 21.8461 16.3633 21.9937 15.7228 22.0882C14.717 22.2366 13.7754 22.1421 12.8121 21.8457C11.8697 21.5536 10.9214 21.073 9.88451 20.4329L9.80775 20.3837C9.33261 20.0876 8.81889 19.7692 8.31541 19.3944C6.46877 18.0009 4.58947 15.9901 3.36559 13.7766C2.33894 11.9185 1.77838 9.91285 2.08504 8.00048C2.25431 6.95218 2.70386 5.99914 3.48763 5.37008C4.17062 4.81975 5.09138 4.51821 6.28297 4.62371C6.41996 4.63276 6.54199 4.71307 6.60537 4.82998L8.66537 8.31383C8.9673 8.70473 9.0043 9.0913 8.84015 9.47826C8.70276 9.79672 8.42799 10.0884 8.05127 10.3624C7.94025 10.4569 7.80799 10.5529 7.66981 10.6537C7.20884 10.9883 6.68568 11.3741 6.86479 11.8288L6.86007 11.8174V11.8174ZM10.6986 10.1542C10.3805 10.0723 10.1892 9.74673 10.2715 9.42866C10.3538 9.11058 10.6789 8.91927 10.997 9.00154C11.9618 9.25309 12.8692 9.77547 13.6034 10.4608C14.3419 11.1505 14.9146 12.0122 15.204 12.9361C15.3016 13.2507 15.126 13.5853 14.8119 13.6829C14.4978 13.7809 14.1628 13.6053 14.0651 13.2912C13.8388 12.5681 13.3829 11.8862 12.7913 11.3336C12.1949 10.7765 11.4654 10.3541 10.6986 10.1542V10.1542ZM10.7777 6.50341C10.453 6.4483 10.2349 6.13967 10.29 5.81491C10.3447 5.49054 10.6537 5.27206 10.9781 5.32717C12.7972 5.64209 14.5241 6.56561 15.9086 7.86152C17.2939 9.15743 18.3422 10.8301 18.8032 12.6428C18.8842 12.9625 18.691 13.2877 18.3713 13.3687C18.0517 13.4498 17.7265 13.2566 17.6454 12.9369C17.24 11.3434 16.3168 9.87073 15.0965 8.72913C13.8789 7.5895 12.3653 6.77857 10.7777 6.50341V6.50341ZM11.1611 3.18923C10.834 3.15183 10.599 2.85581 10.6364 2.52868C10.6738 2.20155 10.9694 1.96615 11.2966 2.00354C13.8415 2.30154 16.233 3.46873 18.1261 5.18467C20.0239 6.90454 21.4261 9.18065 21.9847 11.6886C22.0555 12.0091 21.8528 12.3271 21.532 12.398C21.2115 12.4689 20.8935 12.2661 20.8226 11.9453C20.3187 9.68375 19.0492 7.62572 17.3281 6.06645C15.6146 4.51349 13.4546 3.45731 11.1611 3.18923V3.18923Z"/></path>
    </symbol>
    <symbol id="ladder-top-left" viewBox="0 0 140 153" preserveAspectRatio="xMinYMid meet">
            <path d="M140 0H0V153H45.8451V102.166H92.6761V50.8339H140V0Z"/></path>
    </symbol>
    <symbol id="ladder-bottom-left" viewBox="0 0 140 153" preserveAspectRatio="xMinYMid meet">
            <path d="M140 153H-1V0H44.8451V50.8339H91.6761V102.166H139V153Z"/></path>
    </symbol>
    <symbol id="ladder-top-right" viewBox="0 0 140 153" preserveAspectRatio="xMaxYMid meet">
            <path d="M0 0H140V153H94.1549V102.166H47.3239V50.8339H0V0Z"/></path>
    </symbol>
    <symbol id="ladder-bottom-right" viewBox="0 0 140 153" preserveAspectRatio="xMaxYMid meet">
            <path d="M0 153H140V0H94.1549V50.8339H47.3239V102.166H0V153Z"/></path>
    </symbol>
</defs>
</svg>
