<svg width="148" height="37" viewBox="0 0 148 37" fill="none" xmlns="http://www.w3.org/2000/svg">
<path d="M8.47852 14.1304V30.1304H31.5655V14.1304L20.0003 7.34778L8.47852 14.1304Z" fill="#93977A"/>
<path d="M0.609375 15.3043V30.1304H16.0007V22.4348L0.609375 15.3043Z" fill="url(#paint0_linear_53_141)"/>
<path d="M0.609375 15.3043V30.1304H16.0007V22.4348L0.609375 15.3043Z" fill="#CF6F49" fill-opacity="0.5"/>
<path d="M39.3906 15.3043V30.1304H23.9993V22.4348L39.3906 15.3043Z" fill="url(#paint1_linear_53_141)"/>
<path d="M39.3906 15.3043V30.1304H23.9993V22.4348L39.3906 15.3043Z" fill="#CF6F49" fill-opacity="0.5"/>
<rect x="0.609375" y="32.2609" width="38.7826" height="3.82609" fill="#939878"/>
<circle cx="2.17391" cy="11.2174" r="2.17391" fill="#939878"/>
<circle cx="37.8263" cy="11.2174" r="2.17391" fill="#93977A"/>
<circle cx="19.9993" cy="2.6087" r="2.6087" fill="#93977A"/>
<path d="M53.272 26L50.52 17.04H50.456C50.4667 17.2533 50.4827 17.5733 50.504 18C50.5253 18.4267 50.5467 18.8853 50.568 19.376C50.5893 19.856 50.6 20.2933 50.6 20.688V26H48.44V14.576H51.736L54.44 23.312H54.488L57.352 14.576H60.648V26H58.392V20.592C58.392 20.2293 58.3973 19.8133 58.408 19.344C58.4293 18.8747 58.4453 18.432 58.456 18.016C58.4773 17.5893 58.4933 17.2693 58.504 17.056H58.44L55.496 26H53.272ZM71.7098 21.968C71.7098 22.7573 71.5338 23.472 71.1818 24.112C70.8404 24.7413 70.3178 25.2427 69.6138 25.616C68.9204 25.9787 68.0404 26.16 66.9738 26.16C65.4591 26.16 64.3071 25.776 63.5178 25.008C62.7284 24.2293 62.3338 23.2053 62.3338 21.936V14.576H64.7498V21.568C64.7498 22.5067 64.9418 23.168 65.3258 23.552C65.7098 23.936 66.2804 24.128 67.0378 24.128C67.8271 24.128 68.3978 23.92 68.7498 23.504C69.1124 23.088 69.2938 22.4373 69.2938 21.552V14.576H71.7098V21.968ZM80.2233 26L79.3913 23.28H75.2313L74.3993 26H71.7913L75.8233 14.528H78.7833L82.8313 26H80.2233ZM77.9833 18.592C77.9299 18.4107 77.8606 18.1813 77.7753 17.904C77.6899 17.6267 77.6046 17.344 77.5193 17.056C77.4339 16.768 77.3646 16.5173 77.3113 16.304C77.2579 16.5173 77.1833 16.784 77.0873 17.104C77.0019 17.4133 76.9166 17.712 76.8313 18C76.7566 18.2773 76.6979 18.4747 76.6553 18.592L75.8393 21.248H78.8153L77.9833 18.592ZM89.7464 14.576C91.2717 14.576 92.4237 14.7893 93.2024 15.216C93.981 15.6427 94.3704 16.3947 94.3704 17.472C94.3704 18.1227 94.2157 18.672 93.9064 19.12C93.6077 19.568 93.1757 19.84 92.6104 19.936V20.016C92.9944 20.0907 93.341 20.224 93.6504 20.416C93.9597 20.608 94.205 20.8853 94.3864 21.248C94.5677 21.6107 94.6584 22.0907 94.6584 22.688C94.6584 23.7227 94.285 24.5333 93.5384 25.12C92.7917 25.7067 91.7677 26 90.4664 26H86.1944V14.576H89.7464ZM90.0184 19.104C90.7224 19.104 91.2077 18.992 91.4744 18.768C91.7517 18.544 91.8904 18.2187 91.8904 17.792C91.8904 17.3547 91.7304 17.04 91.4104 16.848C91.0904 16.656 90.5837 16.56 89.8904 16.56H88.6104V19.104H90.0184ZM88.6104 21.024V24H90.1944C90.9197 24 91.4264 23.8613 91.7144 23.584C92.0024 23.296 92.1464 22.9173 92.1464 22.448C92.1464 22.0213 91.997 21.68 91.6984 21.424C91.4104 21.1573 90.8824 21.024 90.1144 21.024H88.6104ZM102.816 26L101.984 23.28H97.8244L96.9924 26H94.3844L98.4164 14.528H101.376L105.424 26H102.816ZM100.576 18.592C100.523 18.4107 100.454 18.1813 100.368 17.904C100.283 17.6267 100.198 17.344 100.112 17.056C100.027 16.768 99.9577 16.5173 99.9044 16.304C99.851 16.5173 99.7764 16.784 99.6804 17.104C99.595 17.4133 99.5097 17.712 99.4244 18C99.3497 18.2773 99.291 18.4747 99.2484 18.592L98.4324 21.248H101.408L100.576 18.592ZM103.28 11.216C103.131 11.3653 102.934 11.5467 102.688 11.76C102.443 11.9733 102.176 12.1973 101.888 12.432C101.611 12.6667 101.334 12.8907 101.056 13.104C100.79 13.3067 100.555 13.4773 100.352 13.616H98.7684V13.408C98.939 13.2053 99.1364 12.9707 99.3604 12.704C99.595 12.4267 99.8244 12.144 100.048 11.856C100.272 11.5573 100.459 11.2907 100.608 11.056H103.28V11.216ZM115.879 26H112.807L107.831 17.36H107.767C107.789 17.904 107.81 18.448 107.831 18.992C107.863 19.536 107.89 20.08 107.911 20.624V26H105.751V14.576H108.807L113.767 23.136H113.815C113.805 22.6027 113.789 22.0747 113.767 21.552C113.746 21.0293 113.725 20.5067 113.703 19.984V14.576H115.879V26ZM124.267 14.576C125.462 14.576 126.496 14.7893 127.371 15.216C128.256 15.6427 128.939 16.272 129.419 17.104C129.91 17.9253 130.155 18.9493 130.155 20.176C130.155 22.1067 129.606 23.5627 128.507 24.544C127.419 25.5147 125.888 26 123.915 26H120.683V21.344H119.611V19.36H120.683V14.576H124.267ZM124.379 16.56H123.099V19.36H124.955V21.344H123.099V24H124.123C126.47 24 127.643 22.7467 127.643 20.24C127.643 18.9707 127.36 18.0427 126.795 17.456C126.23 16.8587 125.424 16.56 124.379 16.56ZM137.398 11.936C137.612 11.712 137.798 11.4827 137.958 11.248C138.129 11.0027 138.3 10.7093 138.47 10.368H140.358V10.528C140.124 10.8373 139.846 11.1307 139.526 11.408C139.206 11.6747 138.892 11.92 138.582 12.144H137.398V11.936ZM136.822 13.664C136.556 13.4827 136.284 13.2853 136.006 13.072C135.729 12.848 135.452 12.6133 135.174 12.368C134.897 12.6133 134.62 12.848 134.342 13.072C134.065 13.2853 133.793 13.4827 133.526 13.664H132.262V13.456C132.529 13.1467 132.812 12.7947 133.11 12.4C133.42 12.0053 133.697 11.6267 133.942 11.264H136.406C136.652 11.6267 136.924 12.0053 137.222 12.4C137.532 12.7947 137.82 13.1467 138.086 13.456V13.664H136.822ZM138.086 26L137.254 23.28H133.094L132.262 26H129.654L133.686 14.528H136.646L140.694 26H138.086ZM135.846 18.592C135.793 18.4107 135.724 18.1813 135.638 17.904C135.553 17.6267 135.468 17.344 135.382 17.056C135.297 16.768 135.228 16.5173 135.174 16.304C135.121 16.5173 135.046 16.784 134.95 17.104C134.865 17.4133 134.78 17.712 134.694 18C134.62 18.2773 134.561 18.4747 134.518 18.592L133.702 21.248H136.678L135.846 18.592ZM144.296 26H141.88V16.592H138.776V14.576H147.4V16.592H144.296V26Z" fill="#2A2C1F" fill-opacity="0.9"/>
<defs>
<linearGradient id="paint0_linear_53_141" x1="8.30503" y1="22.6956" x2="16.0442" y2="22.6956" gradientUnits="userSpaceOnUse">
<stop stop-color="#CF6F49"/>
<stop offset="1" stop-color="#F46500" stop-opacity="0"/>
</linearGradient>
<linearGradient id="paint1_linear_53_141" x1="31.695" y1="22.6956" x2="23.9558" y2="22.6956" gradientUnits="userSpaceOnUse">
<stop stop-color="#CF6F49"/>
<stop offset="1" stop-color="#F46500" stop-opacity="0"/>
</linearGradient>
</defs>
</svg>
