<svg width="36" height="33" viewBox="0 0 36 33" fill="none" xmlns="http://www.w3.org/2000/svg">
<path d="M7.63037 12.7174V27.1174H28.4086V12.7174L17.9999 6.61304L7.63037 12.7174Z" fill="#4D7701"/>
<path d="M0.547852 13.7739V27.1174H14.4V20.1913L0.547852 13.7739Z" fill="url(#paint0_linear_182_6)"/>
<path d="M0.547852 13.7739V27.1174H14.4V20.1913L0.547852 13.7739Z" fill="#F46500" fill-opacity="0.5"/>
<path d="M35.4521 13.7739V27.1174H21.6V20.1913L35.4521 13.7739Z" fill="url(#paint1_linear_182_6)"/>
<path d="M35.4521 13.7739V27.1174H21.6V20.1913L35.4521 13.7739Z" fill="#F46500" fill-opacity="0.5"/>
<rect x="0.547852" y="29.0348" width="34.9044" height="3.44348" fill="#4D7701"/>
<circle cx="1.95652" cy="10.0957" r="1.95652" fill="#4D7701"/>
<circle cx="34.0436" cy="10.0957" r="1.95652" fill="#4D7701"/>
<circle cx="18" cy="2.34783" r="2.34783" fill="#4D7701"/>
<defs>
<linearGradient id="paint0_linear_182_6" x1="7.47394" y1="20.4261" x2="14.4392" y2="20.4261" gradientUnits="userSpaceOnUse">
<stop stop-color="#F46500"/>
<stop offset="1" stop-color="#F46500" stop-opacity="0"/>
</linearGradient>
<linearGradient id="paint1_linear_182_6" x1="28.5261" y1="20.4261" x2="21.5608" y2="20.4261" gradientUnits="userSpaceOnUse">
<stop stop-color="#F46500"/>
<stop offset="1" stop-color="#F46500" stop-opacity="0"/>
</linearGradient>
</defs>
</svg>
