<svg width="148" height="35" viewBox="0 0 148 35" fill="none" xmlns="http://www.w3.org/2000/svg">
<g clip-path="url(#clip0_456_32)">
<path d="M10.212 17.5845V32.0174C10.212 33.3252 11.2722 34.3854 12.58 34.3854H34.04C35.3478 34.3854 36.408 33.3252 36.408 32.0174V17.5872C36.408 16.7469 35.9627 15.9695 35.2379 15.5445L24.4855 9.23857C23.7446 8.80405 22.8265 8.8048 22.0863 9.24055L11.3787 15.5439C10.6558 15.9694 10.212 16.7457 10.212 17.5845Z" fill="#939778"/>
<path d="M1.28267 21.2695V32.0173C1.28267 33.3252 2.34286 34.3853 3.65067 34.3853H16.3787C17.6865 34.3853 18.7467 33.3252 18.7467 32.0173V27.1661C18.7467 26.2437 18.211 25.4052 17.3741 25.0174L4.64608 19.1208C3.0767 18.3938 1.28267 19.5399 1.28267 21.2695Z" fill="url(#paint0_linear_456_32)"/>
<path d="M1.28267 21.2695V32.0173C1.28267 33.3252 2.34286 34.3853 3.65067 34.3853H16.3787C17.6865 34.3853 18.7467 33.3252 18.7467 32.0173V27.1661C18.7467 26.2437 18.211 25.4052 17.3741 25.0174L4.64608 19.1208C3.0767 18.3938 1.28267 19.5399 1.28267 21.2695Z" fill="#CF6F49" fill-opacity="0.5"/>
<path d="M45.288 21.2695V32.0173C45.288 33.3252 44.2278 34.3853 42.92 34.3853H30.192C28.8842 34.3853 27.824 33.3252 27.824 32.0173V27.1661C27.824 26.2437 28.3597 25.4052 29.1966 25.0174L41.9246 19.1208C43.494 18.3938 45.288 19.5399 45.288 21.2695Z" fill="url(#paint1_linear_456_32)"/>
<path d="M45.288 21.2695V32.0173C45.288 33.3252 44.2278 34.3853 42.92 34.3853H30.192C28.8842 34.3853 27.824 33.3252 27.824 32.0173V27.1661C27.824 26.2437 28.3597 25.4052 29.1966 25.0174L41.9246 19.1208C43.494 18.3938 45.288 19.5399 45.288 21.2695Z" fill="#CF6F49" fill-opacity="0.5"/>
<path d="M2.96 16.3786C4.59476 16.3786 5.92 15.0534 5.92 13.4186C5.92 11.7839 4.59476 10.4586 2.96 10.4586C1.32524 10.4586 0 11.7839 0 13.4186C0 15.0534 1.32524 16.3786 2.96 16.3786Z" fill="#939778"/>
<path d="M43.7093 16.3786C45.3441 16.3786 46.6693 15.0534 46.6693 13.4186C46.6693 11.7839 45.3441 10.4586 43.7093 10.4586C42.0746 10.4586 40.7493 11.7839 40.7493 13.4186C40.7493 15.0534 42.0746 16.3786 43.7093 16.3786Z" fill="#939778"/>
<path d="M23.2853 6.90667C25.1926 6.90667 26.7387 5.36056 26.7387 3.45333C26.7387 1.54611 25.1926 0 23.2853 0C21.3781 0 19.832 1.54611 19.832 3.45333C19.832 5.36056 21.3781 6.90667 23.2853 6.90667Z" fill="#939778"/>
<path d="M64.5914 21.6407L62.0831 13.2076H62.0254C62.0351 13.3998 62.0495 13.6737 62.0687 14.0293C62.0879 14.3753 62.1024 14.7549 62.1119 15.1682C62.1312 15.5717 62.1408 15.9514 62.1408 16.307V21.6407H60.4109V11.348H63.0634L65.514 19.4351H65.5573L68.0512 11.348H70.718V21.6407H68.9017V16.2205C68.9017 15.8937 68.9065 15.5382 68.9161 15.1537C68.9257 14.7597 68.9402 14.3897 68.9593 14.0437C68.9786 13.6882 68.993 13.4143 69.0026 13.2221H68.9449L66.3646 21.6407H64.5914ZM80.2872 18.1533C80.2872 18.836 80.1443 19.4542 79.8582 20.0078C79.5815 20.552 79.1571 20.9857 78.585 21.3086C78.0222 21.6223 77.3165 21.7791 76.4677 21.7791C75.2499 21.7791 74.3181 21.447 73.6722 20.7827C73.0357 20.1092 72.7174 19.2235 72.7174 18.1256V11.7597H74.5718V17.9457C74.5718 18.7484 74.7332 19.3388 75.0561 19.7171C75.3791 20.0861 75.8634 20.2706 76.5092 20.2706C76.9613 20.2706 77.3258 20.183 77.6025 20.0078C77.8886 19.8324 78.096 19.5695 78.2253 19.2189C78.3545 18.8591 78.419 18.4301 78.419 17.9319V11.7597H80.2872V18.1533ZM87.862 21.6407L87.1008 19.0252H83.7241L82.963 21.6407H80.9701L84.2915 11.7182H86.5195L89.8547 21.6407H87.862ZM85.8691 14.9565C85.8322 14.8089 85.7815 14.6336 85.7169 14.4306C85.6615 14.2184 85.6062 14.0016 85.5508 13.7802C85.5047 13.5588 85.4586 13.3512 85.4125 13.1575C85.3756 13.3789 85.3294 13.6003 85.274 13.8217C85.2187 14.0339 85.1633 14.2369 85.108 14.4306C85.0618 14.6244 85.0157 14.7997 84.9696 14.9565L84.1946 17.5029H86.6579L85.8691 14.9565ZM96.9125 11.348C97.7774 11.348 98.4933 11.4345 99.0603 11.6075C99.6277 11.7709 100.045 12.04 100.314 12.4148C100.594 12.7895 100.733 13.2941 100.733 13.9284C100.733 14.3224 100.666 14.678 100.53 14.9951C100.396 15.3123 100.204 15.5717 99.9543 15.7736C99.7135 15.9754 99.4353 16.11 99.1176 16.1772V16.2493C99.4451 16.3166 99.752 16.4415 100.041 16.6241C100.329 16.7971 100.56 17.0518 100.733 17.3882C100.905 17.7149 100.992 18.1473 100.992 18.6855C100.992 19.3102 100.848 19.8436 100.56 20.2856C100.281 20.7278 99.8773 21.0641 99.3484 21.2948C98.8196 21.5254 98.1905 21.6407 97.4603 21.6407H93.8852V11.348H96.9125ZM97.0854 15.5429C97.7101 15.5429 98.1425 15.4276 98.3829 15.197C98.6231 14.9663 98.7436 14.6251 98.7436 14.1734C98.7436 13.7122 98.5991 13.3806 98.3108 13.1788C98.0319 12.977 97.5851 12.8761 96.9701 12.8761H95.8169V15.5429H97.0854ZM95.8169 17.0278V20.0983H97.2296C97.8831 20.0983 98.3348 19.9541 98.5847 19.6658C98.8443 19.3775 98.9735 18.9931 98.9735 18.5126C98.9735 18.205 98.9163 17.9407 98.8008 17.7197C98.6953 17.4987 98.5125 17.3305 98.2532 17.2151C97.9937 17.0902 97.6332 17.0278 97.172 17.0278H95.8169ZM108.288 21.6407L107.526 19.0252H104.15L103.389 21.6407H101.396L104.717 11.7182H106.945L110.281 21.6407H108.288ZM106.295 14.9565C106.258 14.8089 106.207 14.6336 106.143 14.4306C106.087 14.2184 106.032 14.0016 105.977 13.7802C105.931 13.5588 105.884 13.3512 105.838 13.1575C105.801 13.3789 105.755 13.6003 105.7 13.8217C105.644 14.0339 105.589 14.2369 105.534 14.4306C105.487 14.6244 105.441 14.7997 105.395 14.9565L104.62 17.5029H107.084L106.295 14.9565ZM108.467 8.79818C108.348 8.92735 108.191 9.08419 107.997 9.2687C107.812 9.45322 107.605 9.64697 107.374 9.84994C107.153 10.0529 106.936 10.2467 106.724 10.4312C106.512 10.6064 106.322 10.7541 106.156 10.874H104.939V10.6941C105.086 10.5188 105.248 10.3159 105.422 10.0852C105.598 9.84532 105.778 9.60083 105.962 9.35173C106.148 9.09341 106.295 8.86276 106.405 8.65979H108.467V8.79818ZM119.27 21.6407H116.932L112.766 13.8909H112.711C112.72 14.0939 112.729 14.3107 112.739 14.5414C112.747 14.7628 112.756 14.9934 112.766 15.2333C112.784 15.464 112.798 15.6992 112.808 15.9391C112.816 16.1789 112.821 16.4189 112.821 16.6587V21.6407H111.161V11.7597H113.485L117.637 19.4542H117.693C117.684 19.2697 117.674 19.0713 117.665 18.8591C117.656 18.6377 117.646 18.4116 117.637 18.181C117.628 17.9504 117.619 17.7151 117.61 17.4752C117.6 17.2353 117.596 17.0047 117.596 16.7833V11.7597H119.27V21.6407ZM127.567 11.348C128.575 11.348 129.441 11.5402 130.161 11.9246C130.892 12.309 131.454 12.8761 131.848 13.6256C132.242 14.3656 132.439 15.2883 132.439 16.3934C132.439 17.5467 132.232 18.5126 131.82 19.291C131.415 20.0694 130.829 20.6557 130.06 21.0497C129.292 21.4437 128.374 21.6407 127.308 21.6407H124.496V17.3161H123.573V15.788H124.496V11.348H127.567ZM127.552 12.8761H126.428V15.788H128.244V17.3161H126.428V20.0983H127.336C128.374 20.0983 129.148 19.7907 129.657 19.1756C130.166 18.5606 130.421 17.6476 130.421 16.4367C130.421 15.6294 130.305 14.9615 130.075 14.4329C129.854 13.9044 129.532 13.5151 129.109 13.2653C128.686 13.0058 128.167 12.8761 127.552 12.8761ZM138.733 10.874C138.521 10.7172 138.3 10.5465 138.069 10.362C137.848 10.1682 137.622 9.96529 137.391 9.75307C137.16 9.96529 136.935 10.1682 136.714 10.362C136.492 10.5465 136.271 10.7172 136.049 10.874H135.081V10.708C135.228 10.5326 135.38 10.3389 135.536 10.1267C135.693 9.91448 135.85 9.70232 136.007 9.49012C136.174 9.2687 136.321 9.0565 136.45 8.85353H138.346C138.485 9.0565 138.633 9.2687 138.789 9.49012C138.946 9.70232 139.102 9.91448 139.259 10.1267C139.416 10.3389 139.569 10.5326 139.716 10.708V10.874H138.733ZM139.149 9.39325C139.324 9.18106 139.476 8.97347 139.605 8.7705C139.744 8.56753 139.883 8.31842 140.021 8.02319H141.502V8.16158C141.317 8.42914 141.095 8.68285 140.837 8.92273C140.579 9.15338 140.33 9.36557 140.09 9.55932H139.149V9.39325ZM139.826 21.6407L139.066 19.0252H135.689L134.928 21.6407H132.936L136.257 11.7182H138.485L141.82 21.6407H139.826ZM137.834 14.9565C137.797 14.8089 137.747 14.6336 137.681 14.4306C137.626 14.2184 137.571 14.0016 137.516 13.7802C137.469 13.5588 137.424 13.3512 137.378 13.1575C137.34 13.3789 137.295 13.6003 137.239 13.8217C137.184 14.0339 137.128 14.2369 137.073 14.4306C137.027 14.6244 136.981 14.7997 136.935 14.9565L136.16 17.5029H138.623L137.834 14.9565ZM145.296 21.6407H143.428V13.2543H140.854V11.7597H147.856V13.2543H145.296V21.6407Z" fill="#2A2C1F"/>
<path d="M89.8303 25.556L87.8409 31.7316H86.5522L84.5714 25.556H85.8083L86.8894 29.3357C86.9183 29.4395 86.9529 29.575 86.9932 29.7423C87.0394 29.9037 87.0797 30.0709 87.1144 30.2439C87.1547 30.4111 87.1835 30.561 87.2008 30.6936C87.2182 30.561 87.244 30.4111 87.2787 30.2439C87.319 30.0767 87.3594 29.9094 87.3997 29.7423C87.4401 29.575 87.4776 29.4395 87.5122 29.3357L88.5847 25.556H89.8303ZM94.4802 27.0437V31.7316H93.5981L93.4509 31.1262H93.3905C93.2982 31.2876 93.18 31.4202 93.0359 31.524C92.8917 31.622 92.733 31.6941 92.5601 31.7403C92.3871 31.7922 92.2083 31.8181 92.0238 31.8181C91.7009 31.8181 91.4213 31.7576 91.1849 31.6365C90.9485 31.5153 90.764 31.3308 90.6313 31.0829C90.5045 30.8292 90.441 30.5034 90.441 30.1055V27.0437H91.5914V29.8893C91.5914 30.2352 91.649 30.4976 91.7643 30.6764C91.8855 30.8493 92.0757 30.9359 92.3352 30.9359C92.5947 30.9359 92.7965 30.8753 92.9406 30.7542C93.0906 30.6273 93.1944 30.4457 93.252 30.2093C93.3098 29.9729 93.3386 29.6817 93.3386 29.3357V27.0437H94.4802ZM90.8735 26.4987C90.8907 26.2911 90.9254 26.1124 90.9773 25.9625C91.0349 25.8068 91.1042 25.677 91.1849 25.5732C91.2714 25.4694 91.3694 25.3916 91.4789 25.3397C91.5942 25.2878 91.724 25.2618 91.8681 25.2618C91.9719 25.2618 92.0786 25.2849 92.1882 25.3311C92.3036 25.3772 92.4131 25.4319 92.5169 25.4954C92.6264 25.5588 92.7302 25.6136 92.8283 25.6598C92.9321 25.7058 93.03 25.7289 93.1223 25.7289C93.2088 25.7289 93.2867 25.6886 93.3558 25.6079C93.425 25.5271 93.474 25.4089 93.5028 25.2532H94.0737C94.0391 25.6569 93.9324 25.9653 93.7538 26.1787C93.5807 26.3863 93.3617 26.49 93.0963 26.49C92.981 26.49 92.8658 26.467 92.7504 26.4209C92.6408 26.3748 92.5313 26.3199 92.4218 26.2566C92.318 26.1931 92.2142 26.1384 92.1104 26.0922C92.0123 26.0461 91.9143 26.023 91.8162 26.023C91.7355 26.023 91.6605 26.0634 91.5914 26.1441C91.5279 26.2191 91.4789 26.3373 91.4444 26.4987H90.8735ZM98.2892 26.9571C98.7791 26.9571 99.1659 27.0927 99.4481 27.3636C99.7303 27.6347 99.8724 28.0729 99.8724 28.6784V31.7316H98.7219V28.8946C98.7219 28.5429 98.661 28.2805 98.54 28.1075C98.4189 27.9288 98.2286 27.8394 97.9691 27.8394C97.5828 27.8394 97.3205 27.9777 97.182 28.2546C97.0436 28.5255 96.9744 28.9206 96.9744 29.4395V31.7316H95.8241V27.0437H96.7064L96.8706 27.6578H96.9138C97.0176 27.4963 97.1388 27.3636 97.2771 27.2598C97.4156 27.156 97.5713 27.0811 97.7442 27.035C97.9172 26.9831 98.0988 26.9571 98.2892 26.9571ZM102.661 26.9571C102.949 26.9571 103.199 27.0148 103.413 27.1302C103.627 27.2454 103.805 27.4185 103.949 27.6491H103.984L104.087 27.0437H105.056V31.7662C105.056 32.2102 104.975 32.5821 104.814 32.882C104.653 33.1875 104.41 33.4182 104.087 33.5739C103.771 33.7296 103.367 33.8075 102.877 33.8075C102.548 33.8075 102.248 33.7844 101.977 33.7383C101.712 33.6978 101.458 33.6258 101.216 33.522V32.6225C101.383 32.6975 101.554 32.7609 101.726 32.8128C101.905 32.8704 102.089 32.9136 102.28 32.9425C102.47 32.9714 102.672 32.9858 102.886 32.9858C103.22 32.9858 103.474 32.8848 103.646 32.683C103.825 32.4812 103.915 32.1929 103.915 31.8181V31.697C103.915 31.6105 103.918 31.5096 103.924 31.3943C103.934 31.2789 103.943 31.1867 103.949 31.1175H103.915C103.777 31.3596 103.603 31.5384 103.396 31.6538C103.188 31.7633 102.937 31.8181 102.643 31.8181C102.118 31.8181 101.704 31.6047 101.398 31.178C101.098 30.7514 100.948 30.1574 100.948 29.3963C100.948 28.8831 101.017 28.4448 101.155 28.0815C101.294 27.7183 101.49 27.4415 101.743 27.2512C102.003 27.0552 102.308 26.9571 102.661 26.9571ZM103.006 27.848C102.811 27.848 102.646 27.9086 102.514 28.0296C102.386 28.145 102.289 28.3179 102.22 28.5486C102.15 28.7793 102.115 29.0676 102.115 29.4135C102.115 29.921 102.19 30.3045 102.34 30.5639C102.49 30.8234 102.715 30.9531 103.015 30.9531C103.188 30.9531 103.335 30.93 103.456 30.884C103.577 30.8321 103.675 30.7514 103.75 30.6417C103.825 30.5265 103.883 30.3823 103.924 30.2093C103.963 30.0306 103.984 29.8172 103.984 29.5692V29.4049C103.984 29.0301 103.949 28.7303 103.88 28.5054C103.816 28.2747 103.712 28.1075 103.568 28.0037C103.424 27.8999 103.237 27.848 103.006 27.848ZM110.886 31.7316H109.717V26.49H108.109V25.556H112.486V26.49H110.886V31.7316ZM114.645 26.9571C115.21 26.9571 115.642 27.0897 115.942 27.355C116.242 27.6145 116.392 28.0239 116.392 28.5832V31.7316H115.587L115.362 31.0829H115.328C115.201 31.2501 115.071 31.3914 114.939 31.5067C114.807 31.6163 114.654 31.6941 114.48 31.7403C114.307 31.7922 114.1 31.8181 113.857 31.8181C113.598 31.8181 113.364 31.7662 113.157 31.6624C112.95 31.5586 112.785 31.4 112.664 31.1867C112.543 30.9675 112.482 30.6936 112.482 30.365C112.482 29.8806 112.65 29.5173 112.984 29.2752C113.319 29.0272 113.82 28.8917 114.489 28.8687L115.242 28.8427V28.6092C115.242 28.3094 115.178 28.0959 115.051 27.9691C114.924 27.8423 114.751 27.7788 114.532 27.7788C114.325 27.7788 114.114 27.8135 113.901 27.8826C113.694 27.9518 113.488 28.0326 113.287 28.1248L112.932 27.3636C113.169 27.2426 113.431 27.1446 113.719 27.0696C114.007 26.9946 114.316 26.9571 114.645 26.9571ZM114.757 29.5347C114.348 29.552 114.063 29.6355 113.901 29.7855C113.739 29.9297 113.659 30.1257 113.659 30.3737C113.659 30.5928 113.713 30.7513 113.823 30.8493C113.938 30.9474 114.088 30.9964 114.273 30.9964C114.544 30.9964 114.774 30.907 114.964 30.7283C115.155 30.5438 115.251 30.2727 115.251 29.9152V29.5173L114.757 29.5347ZM114.402 25.0457C114.477 25.1725 114.57 25.3167 114.679 25.4781C114.795 25.6338 114.907 25.7866 115.017 25.9365C115.132 26.0807 115.233 26.2076 115.32 26.3171V26.4296H114.558C114.454 26.3546 114.333 26.2623 114.195 26.1528C114.063 26.0375 113.926 25.9164 113.788 25.7895C113.65 25.6626 113.52 25.5416 113.4 25.4262C113.284 25.3109 113.188 25.2129 113.113 25.1322V25.0457H114.402ZM121.707 27.0437V31.7316H120.825L120.678 31.1262H120.618C120.525 31.2876 120.407 31.4202 120.263 31.524C120.119 31.622 119.96 31.6941 119.787 31.7403C119.615 31.7922 119.436 31.8181 119.251 31.8181C118.928 31.8181 118.649 31.7576 118.412 31.6365C118.176 31.5153 117.992 31.3308 117.858 31.0829C117.732 30.8292 117.668 30.5034 117.668 30.1055V27.0437H118.818V29.8893C118.818 30.2352 118.877 30.4976 118.992 30.6764C119.112 30.8493 119.303 30.9359 119.562 30.9359C119.822 30.9359 120.024 30.8753 120.168 30.7542C120.318 30.6273 120.422 30.4457 120.479 30.2093C120.537 29.9729 120.566 29.6817 120.566 29.3357V27.0437H121.707Z" fill="#939778"/>
<path d="M10.212 17.5845V32.0174C10.212 33.3252 11.2722 34.3854 12.58 34.3854H34.04C35.3478 34.3854 36.408 33.3252 36.408 32.0174V17.5872C36.408 16.7469 35.9627 15.9695 35.2379 15.5445L24.4855 9.23857C23.7446 8.80405 22.8265 8.8048 22.0863 9.24055L11.3787 15.5439C10.6558 15.9694 10.212 16.7457 10.212 17.5845Z" fill="#939778"/>
<path d="M1.28267 21.2695V32.0173C1.28267 33.3252 2.34286 34.3853 3.65067 34.3853H16.3787C17.6865 34.3853 18.7467 33.3252 18.7467 32.0173V27.1661C18.7467 26.2437 18.211 25.4052 17.3741 25.0174L4.64608 19.1208C3.0767 18.3938 1.28267 19.5399 1.28267 21.2695Z" fill="url(#paint2_linear_456_32)"/>
<path d="M1.28267 21.2695V32.0173C1.28267 33.3252 2.34286 34.3853 3.65067 34.3853H16.3787C17.6865 34.3853 18.7467 33.3252 18.7467 32.0173V27.1661C18.7467 26.2437 18.211 25.4052 17.3741 25.0174L4.64608 19.1208C3.0767 18.3938 1.28267 19.5399 1.28267 21.2695Z" fill="#CF6F49" fill-opacity="0.5"/>
<path d="M45.288 21.2695V32.0173C45.288 33.3252 44.2278 34.3853 42.92 34.3853H30.192C28.8842 34.3853 27.824 33.3252 27.824 32.0173V27.1661C27.824 26.2437 28.3597 25.4052 29.1966 25.0174L41.9246 19.1208C43.494 18.3938 45.288 19.5399 45.288 21.2695Z" fill="url(#paint3_linear_456_32)"/>
<path d="M45.288 21.2695V32.0173C45.288 33.3252 44.2278 34.3853 42.92 34.3853H30.192C28.8842 34.3853 27.824 33.3252 27.824 32.0173V27.1661C27.824 26.2437 28.3597 25.4052 29.1966 25.0174L41.9246 19.1208C43.494 18.3938 45.288 19.5399 45.288 21.2695Z" fill="#CF6F49" fill-opacity="0.5"/>
<path d="M2.96 16.3786C4.59476 16.3786 5.92 15.0534 5.92 13.4186C5.92 11.7839 4.59476 10.4586 2.96 10.4586C1.32524 10.4586 0 11.7839 0 13.4186C0 15.0534 1.32524 16.3786 2.96 16.3786Z" fill="#939778"/>
<path d="M43.7093 16.3786C45.3441 16.3786 46.6693 15.0534 46.6693 13.4186C46.6693 11.7839 45.3441 10.4586 43.7093 10.4586C42.0746 10.4586 40.7493 11.7839 40.7493 13.4186C40.7493 15.0534 42.0746 16.3786 43.7093 16.3786Z" fill="#939778"/>
<path d="M23.2853 6.90667C25.1926 6.90667 26.7387 5.36056 26.7387 3.45333C26.7387 1.54611 25.1926 0 23.2853 0C21.3781 0 19.832 1.54611 19.832 3.45333C19.832 5.36056 21.3781 6.90667 23.2853 6.90667Z" fill="#939778"/>
<path d="M64.5914 21.6407L62.0831 13.2076H62.0254C62.0351 13.3998 62.0495 13.6737 62.0687 14.0293C62.0879 14.3753 62.1024 14.7549 62.1119 15.1682C62.1312 15.5717 62.1408 15.9514 62.1408 16.307V21.6407H60.4109V11.348H63.0634L65.514 19.4351H65.5573L68.0512 11.348H70.718V21.6407H68.9017V16.2205C68.9017 15.8937 68.9065 15.5382 68.9161 15.1537C68.9257 14.7597 68.9402 14.3897 68.9593 14.0437C68.9786 13.6882 68.993 13.4143 69.0026 13.2221H68.9449L66.3646 21.6407H64.5914ZM80.2872 18.1533C80.2872 18.836 80.1443 19.4542 79.8582 20.0078C79.5815 20.552 79.1571 20.9857 78.585 21.3086C78.0222 21.6223 77.3165 21.7791 76.4677 21.7791C75.2499 21.7791 74.3181 21.447 73.6722 20.7827C73.0357 20.1092 72.7174 19.2235 72.7174 18.1256V11.7597H74.5718V17.9457C74.5718 18.7484 74.7332 19.3388 75.0561 19.7171C75.3791 20.0861 75.8634 20.2706 76.5092 20.2706C76.9613 20.2706 77.3258 20.183 77.6025 20.0078C77.8886 19.8324 78.096 19.5695 78.2253 19.2189C78.3545 18.8591 78.419 18.4301 78.419 17.9319V11.7597H80.2872V18.1533ZM87.862 21.6407L87.1008 19.0252H83.7241L82.963 21.6407H80.9701L84.2915 11.7182H86.5195L89.8547 21.6407H87.862ZM85.8691 14.9565C85.8322 14.8089 85.7815 14.6336 85.7169 14.4306C85.6615 14.2184 85.6062 14.0016 85.5508 13.7802C85.5047 13.5588 85.4586 13.3512 85.4125 13.1575C85.3756 13.3789 85.3294 13.6003 85.274 13.8217C85.2187 14.0339 85.1633 14.2369 85.108 14.4306C85.0618 14.6244 85.0157 14.7997 84.9696 14.9565L84.1946 17.5029H86.6579L85.8691 14.9565ZM96.9125 11.348C97.7774 11.348 98.4933 11.4345 99.0603 11.6075C99.6277 11.7709 100.045 12.04 100.314 12.4148C100.594 12.7895 100.733 13.2941 100.733 13.9284C100.733 14.3224 100.666 14.678 100.53 14.9951C100.396 15.3123 100.204 15.5717 99.9543 15.7736C99.7135 15.9754 99.4353 16.11 99.1176 16.1772V16.2493C99.4451 16.3166 99.752 16.4415 100.041 16.6241C100.329 16.7971 100.56 17.0518 100.733 17.3882C100.905 17.7149 100.992 18.1473 100.992 18.6855C100.992 19.3102 100.848 19.8436 100.56 20.2856C100.281 20.7278 99.8773 21.0641 99.3484 21.2948C98.8196 21.5254 98.1905 21.6407 97.4603 21.6407H93.8852V11.348H96.9125ZM97.0854 15.5429C97.7101 15.5429 98.1425 15.4276 98.3829 15.197C98.6231 14.9663 98.7436 14.6251 98.7436 14.1734C98.7436 13.7122 98.5991 13.3806 98.3108 13.1788C98.0319 12.977 97.5851 12.8761 96.9701 12.8761H95.8169V15.5429H97.0854ZM95.8169 17.0278V20.0983H97.2296C97.8831 20.0983 98.3348 19.9541 98.5847 19.6658C98.8443 19.3775 98.9735 18.9931 98.9735 18.5126C98.9735 18.205 98.9163 17.9407 98.8008 17.7197C98.6953 17.4987 98.5125 17.3305 98.2532 17.2151C97.9937 17.0902 97.6332 17.0278 97.172 17.0278H95.8169ZM108.288 21.6407L107.526 19.0252H104.15L103.389 21.6407H101.396L104.717 11.7182H106.945L110.281 21.6407H108.288ZM106.295 14.9565C106.258 14.8089 106.207 14.6336 106.143 14.4306C106.087 14.2184 106.032 14.0016 105.977 13.7802C105.931 13.5588 105.884 13.3512 105.838 13.1575C105.801 13.3789 105.755 13.6003 105.7 13.8217C105.644 14.0339 105.589 14.2369 105.534 14.4306C105.487 14.6244 105.441 14.7997 105.395 14.9565L104.62 17.5029H107.084L106.295 14.9565ZM108.467 8.79818C108.348 8.92735 108.191 9.08419 107.997 9.2687C107.812 9.45322 107.605 9.64697 107.374 9.84994C107.153 10.0529 106.936 10.2467 106.724 10.4312C106.512 10.6064 106.322 10.7541 106.156 10.874H104.939V10.6941C105.086 10.5188 105.248 10.3159 105.422 10.0852C105.598 9.84532 105.778 9.60083 105.962 9.35173C106.148 9.09341 106.295 8.86276 106.405 8.65979H108.467V8.79818ZM119.27 21.6407H116.932L112.766 13.8909H112.711C112.72 14.0939 112.729 14.3107 112.739 14.5414C112.747 14.7628 112.756 14.9934 112.766 15.2333C112.784 15.464 112.798 15.6992 112.808 15.9391C112.816 16.1789 112.821 16.4189 112.821 16.6587V21.6407H111.161V11.7597H113.485L117.637 19.4542H117.693C117.684 19.2697 117.674 19.0713 117.665 18.8591C117.656 18.6377 117.646 18.4116 117.637 18.181C117.628 17.9504 117.619 17.7151 117.61 17.4752C117.6 17.2353 117.596 17.0047 117.596 16.7833V11.7597H119.27V21.6407ZM127.567 11.348C128.575 11.348 129.441 11.5402 130.161 11.9246C130.892 12.309 131.454 12.8761 131.848 13.6256C132.242 14.3656 132.439 15.2883 132.439 16.3934C132.439 17.5467 132.232 18.5126 131.82 19.291C131.415 20.0694 130.829 20.6557 130.06 21.0497C129.292 21.4437 128.374 21.6407 127.308 21.6407H124.496V17.3161H123.573V15.788H124.496V11.348H127.567ZM127.552 12.8761H126.428V15.788H128.244V17.3161H126.428V20.0983H127.336C128.374 20.0983 129.148 19.7907 129.657 19.1756C130.166 18.5606 130.421 17.6476 130.421 16.4367C130.421 15.6294 130.305 14.9615 130.075 14.4329C129.854 13.9044 129.532 13.5151 129.109 13.2653C128.686 13.0058 128.167 12.8761 127.552 12.8761ZM138.733 10.874C138.521 10.7172 138.3 10.5465 138.069 10.362C137.848 10.1682 137.622 9.96529 137.391 9.75307C137.16 9.96529 136.935 10.1682 136.714 10.362C136.492 10.5465 136.271 10.7172 136.049 10.874H135.081V10.708C135.228 10.5326 135.38 10.3389 135.536 10.1267C135.693 9.91448 135.85 9.70232 136.007 9.49012C136.174 9.2687 136.321 9.0565 136.45 8.85353H138.346C138.485 9.0565 138.633 9.2687 138.789 9.49012C138.946 9.70232 139.102 9.91448 139.259 10.1267C139.416 10.3389 139.569 10.5326 139.716 10.708V10.874H138.733ZM139.149 9.39325C139.324 9.18106 139.476 8.97347 139.605 8.7705C139.744 8.56753 139.883 8.31842 140.021 8.02319H141.502V8.16158C141.317 8.42914 141.095 8.68285 140.837 8.92273C140.579 9.15338 140.33 9.36557 140.09 9.55932H139.149V9.39325ZM139.826 21.6407L139.066 19.0252H135.689L134.928 21.6407H132.936L136.257 11.7182H138.485L141.82 21.6407H139.826ZM137.834 14.9565C137.797 14.8089 137.747 14.6336 137.681 14.4306C137.626 14.2184 137.571 14.0016 137.516 13.7802C137.469 13.5588 137.424 13.3512 137.378 13.1575C137.34 13.3789 137.295 13.6003 137.239 13.8217C137.184 14.0339 137.128 14.2369 137.073 14.4306C137.027 14.6244 136.981 14.7997 136.935 14.9565L136.16 17.5029H138.623L137.834 14.9565ZM145.296 21.6407H143.428V13.2543H140.854V11.7597H147.856V13.2543H145.296V21.6407Z" fill="#2A2C1F"/>
<path d="M89.8303 25.556L87.8409 31.7316H86.5522L84.5714 25.556H85.8083L86.8894 29.3357C86.9183 29.4395 86.9529 29.575 86.9932 29.7423C87.0394 29.9037 87.0797 30.0709 87.1144 30.2439C87.1547 30.4111 87.1835 30.561 87.2008 30.6936C87.2182 30.561 87.244 30.4111 87.2787 30.2439C87.319 30.0767 87.3594 29.9094 87.3997 29.7423C87.4401 29.575 87.4776 29.4395 87.5122 29.3357L88.5847 25.556H89.8303ZM94.4802 27.0437V31.7316H93.5981L93.4509 31.1262H93.3905C93.2982 31.2876 93.18 31.4202 93.0359 31.524C92.8917 31.622 92.733 31.6941 92.5601 31.7403C92.3871 31.7922 92.2083 31.8181 92.0238 31.8181C91.7009 31.8181 91.4213 31.7576 91.1849 31.6365C90.9485 31.5153 90.764 31.3308 90.6313 31.0829C90.5045 30.8292 90.441 30.5034 90.441 30.1055V27.0437H91.5914V29.8893C91.5914 30.2352 91.649 30.4976 91.7643 30.6764C91.8855 30.8493 92.0757 30.9359 92.3352 30.9359C92.5947 30.9359 92.7965 30.8753 92.9406 30.7542C93.0906 30.6273 93.1944 30.4457 93.252 30.2093C93.3098 29.9729 93.3386 29.6817 93.3386 29.3357V27.0437H94.4802ZM90.8735 26.4987C90.8907 26.2911 90.9254 26.1124 90.9773 25.9625C91.0349 25.8068 91.1042 25.677 91.1849 25.5732C91.2714 25.4694 91.3694 25.3916 91.4789 25.3397C91.5942 25.2878 91.724 25.2618 91.8681 25.2618C91.9719 25.2618 92.0786 25.2849 92.1882 25.3311C92.3036 25.3772 92.4131 25.4319 92.5169 25.4954C92.6264 25.5588 92.7302 25.6136 92.8283 25.6598C92.9321 25.7058 93.03 25.7289 93.1223 25.7289C93.2088 25.7289 93.2867 25.6886 93.3558 25.6079C93.425 25.5271 93.474 25.4089 93.5028 25.2532H94.0737C94.0391 25.6569 93.9324 25.9653 93.7538 26.1787C93.5807 26.3863 93.3617 26.49 93.0963 26.49C92.981 26.49 92.8658 26.467 92.7504 26.4209C92.6408 26.3748 92.5313 26.3199 92.4218 26.2566C92.318 26.1931 92.2142 26.1384 92.1104 26.0922C92.0123 26.0461 91.9143 26.023 91.8162 26.023C91.7355 26.023 91.6605 26.0634 91.5914 26.1441C91.5279 26.2191 91.4789 26.3373 91.4444 26.4987H90.8735ZM98.2892 26.9571C98.7791 26.9571 99.1659 27.0927 99.4481 27.3636C99.7303 27.6347 99.8724 28.0729 99.8724 28.6784V31.7316H98.7219V28.8946C98.7219 28.5429 98.661 28.2805 98.54 28.1075C98.4189 27.9288 98.2286 27.8394 97.9691 27.8394C97.5828 27.8394 97.3205 27.9777 97.182 28.2546C97.0436 28.5255 96.9744 28.9206 96.9744 29.4395V31.7316H95.8241V27.0437H96.7064L96.8706 27.6578H96.9138C97.0176 27.4963 97.1388 27.3636 97.2771 27.2598C97.4156 27.156 97.5713 27.0811 97.7442 27.035C97.9172 26.9831 98.0988 26.9571 98.2892 26.9571ZM102.661 26.9571C102.949 26.9571 103.199 27.0148 103.413 27.1302C103.627 27.2454 103.805 27.4185 103.949 27.6491H103.984L104.087 27.0437H105.056V31.7662C105.056 32.2102 104.975 32.5821 104.814 32.882C104.653 33.1875 104.41 33.4182 104.087 33.5739C103.771 33.7296 103.367 33.8075 102.877 33.8075C102.548 33.8075 102.248 33.7844 101.977 33.7383C101.712 33.6978 101.458 33.6258 101.216 33.522V32.6225C101.383 32.6975 101.554 32.7609 101.726 32.8128C101.905 32.8704 102.089 32.9136 102.28 32.9425C102.47 32.9714 102.672 32.9858 102.886 32.9858C103.22 32.9858 103.474 32.8848 103.646 32.683C103.825 32.4812 103.915 32.1929 103.915 31.8181V31.697C103.915 31.6105 103.918 31.5096 103.924 31.3943C103.934 31.2789 103.943 31.1867 103.949 31.1175H103.915C103.777 31.3596 103.603 31.5384 103.396 31.6538C103.188 31.7633 102.937 31.8181 102.643 31.8181C102.118 31.8181 101.704 31.6047 101.398 31.178C101.098 30.7514 100.948 30.1574 100.948 29.3963C100.948 28.8831 101.017 28.4448 101.155 28.0815C101.294 27.7183 101.49 27.4415 101.743 27.2512C102.003 27.0552 102.308 26.9571 102.661 26.9571ZM103.006 27.848C102.811 27.848 102.646 27.9086 102.514 28.0296C102.386 28.145 102.289 28.3179 102.22 28.5486C102.15 28.7793 102.115 29.0676 102.115 29.4135C102.115 29.921 102.19 30.3045 102.34 30.5639C102.49 30.8234 102.715 30.9531 103.015 30.9531C103.188 30.9531 103.335 30.93 103.456 30.884C103.577 30.8321 103.675 30.7514 103.75 30.6417C103.825 30.5265 103.883 30.3823 103.924 30.2093C103.963 30.0306 103.984 29.8172 103.984 29.5692V29.4049C103.984 29.0301 103.949 28.7303 103.88 28.5054C103.816 28.2747 103.712 28.1075 103.568 28.0037C103.424 27.8999 103.237 27.848 103.006 27.848ZM110.886 31.7316H109.717V26.49H108.109V25.556H112.486V26.49H110.886V31.7316ZM114.645 26.9571C115.21 26.9571 115.642 27.0897 115.942 27.355C116.242 27.6145 116.392 28.0239 116.392 28.5832V31.7316H115.587L115.362 31.0829H115.328C115.201 31.2501 115.071 31.3914 114.939 31.5067C114.807 31.6163 114.654 31.6941 114.48 31.7403C114.307 31.7922 114.1 31.8181 113.857 31.8181C113.598 31.8181 113.364 31.7662 113.157 31.6624C112.95 31.5586 112.785 31.4 112.664 31.1867C112.543 30.9675 112.482 30.6936 112.482 30.365C112.482 29.8806 112.65 29.5173 112.984 29.2752C113.319 29.0272 113.82 28.8917 114.489 28.8687L115.242 28.8427V28.6092C115.242 28.3094 115.178 28.0959 115.051 27.9691C114.924 27.8423 114.751 27.7788 114.532 27.7788C114.325 27.7788 114.114 27.8135 113.901 27.8826C113.694 27.9518 113.488 28.0326 113.287 28.1248L112.932 27.3636C113.169 27.2426 113.431 27.1446 113.719 27.0696C114.007 26.9946 114.316 26.9571 114.645 26.9571ZM114.757 29.5347C114.348 29.552 114.063 29.6355 113.901 29.7855C113.739 29.9297 113.659 30.1257 113.659 30.3737C113.659 30.5928 113.713 30.7513 113.823 30.8493C113.938 30.9474 114.088 30.9964 114.273 30.9964C114.544 30.9964 114.774 30.907 114.964 30.7283C115.155 30.5438 115.251 30.2727 115.251 29.9152V29.5173L114.757 29.5347ZM114.402 25.0457C114.477 25.1725 114.57 25.3167 114.679 25.4781C114.795 25.6338 114.907 25.7866 115.017 25.9365C115.132 26.0807 115.233 26.2076 115.32 26.3171V26.4296H114.558C114.454 26.3546 114.333 26.2623 114.195 26.1528C114.063 26.0375 113.926 25.9164 113.788 25.7895C113.65 25.6626 113.52 25.5416 113.4 25.4262C113.284 25.3109 113.188 25.2129 113.113 25.1322V25.0457H114.402ZM121.707 27.0437V31.7316H120.825L120.678 31.1262H120.618C120.525 31.2876 120.407 31.4202 120.263 31.524C120.119 31.622 119.96 31.6941 119.787 31.7403C119.615 31.7922 119.436 31.8181 119.251 31.8181C118.928 31.8181 118.649 31.7576 118.412 31.6365C118.176 31.5153 117.992 31.3308 117.858 31.0829C117.732 30.8292 117.668 30.5034 117.668 30.1055V27.0437H118.818V29.8893C118.818 30.2352 118.877 30.4976 118.992 30.6764C119.112 30.8493 119.303 30.9359 119.562 30.9359C119.822 30.9359 120.024 30.8753 120.168 30.7542C120.318 30.6273 120.422 30.4457 120.479 30.2093C120.537 29.9729 120.566 29.6817 120.566 29.3357V27.0437H121.707Z" fill="#939778"/>
</g>
<defs>
<linearGradient id="paint0_linear_456_32" x1="10.0147" y1="25.9493" x2="18.796" y2="25.9493" gradientUnits="userSpaceOnUse">
<stop stop-color="#CF6F49"/>
<stop offset="1" stop-color="#F46500" stop-opacity="0"/>
</linearGradient>
<linearGradient id="paint1_linear_456_32" x1="36.556" y1="25.9493" x2="27.7747" y2="25.9493" gradientUnits="userSpaceOnUse">
<stop stop-color="#CF6F49"/>
<stop offset="1" stop-color="#F46500" stop-opacity="0"/>
</linearGradient>
<linearGradient id="paint2_linear_456_32" x1="10.0147" y1="25.9493" x2="18.796" y2="25.9493" gradientUnits="userSpaceOnUse">
<stop stop-color="#CF6F49"/>
<stop offset="1" stop-color="#F46500" stop-opacity="0"/>
</linearGradient>
<linearGradient id="paint3_linear_456_32" x1="36.556" y1="25.9493" x2="27.7747" y2="25.9493" gradientUnits="userSpaceOnUse">
<stop stop-color="#CF6F49"/>
<stop offset="1" stop-color="#F46500" stop-opacity="0"/>
</linearGradient>
<clipPath id="clip0_456_32">
<rect width="148" height="34.4347" fill="white"/>
</clipPath>
</defs>
</svg>
