<svg width="16" height="16" viewBox="0 0 16 16" fill="none" xmlns="http://www.w3.org/2000/svg">
<g clip-path="url(#clip0_487_35)">
<path d="M14.1887 0H1.81132C0.810956 0 0 0.810956 0 1.81132V14.1887C0 15.189 0.810956 16 1.81132 16H14.1887C15.189 16 16 15.189 16 14.1887V1.81132C16 0.810956 15.189 0 14.1887 0Z" fill="white"/>
<path d="M4 8.12742V12.5434C4 12.9435 4.32438 13.2679 4.72453 13.2679H11.2906C11.6907 13.2679 12.0151 12.9435 12.0151 12.5434V8.12824C12.0151 7.87115 11.8789 7.63329 11.6571 7.50324L8.36722 5.57385C8.14053 5.4409 7.85962 5.44114 7.63315 5.57446L4.35698 7.50306C4.13579 7.63326 4 7.87079 4 8.12742Z" fill="#939778"/>
<path d="M1.26782 9.25493V12.5434C1.26782 12.9436 1.59221 13.2679 1.99235 13.2679H5.88669C6.28684 13.2679 6.61122 12.9436 6.61122 12.5434V11.0591C6.61122 10.7769 6.44732 10.5203 6.19126 10.4017L2.29691 8.59751C1.81673 8.37508 1.26782 8.72572 1.26782 9.25493Z" fill="url(#paint0_linear_487_35)"/>
<path d="M1.26782 9.25493V12.5434C1.26782 12.9436 1.59221 13.2679 1.99235 13.2679H5.88669C6.28684 13.2679 6.61122 12.9436 6.61122 12.5434V11.0591C6.61122 10.7769 6.44732 10.5203 6.19126 10.4017L2.29691 8.59751C1.81673 8.37508 1.26782 8.72572 1.26782 9.25493Z" fill="#CF6F49" fill-opacity="0.5"/>
<path d="M14.7321 9.25493V12.5434C14.7321 12.9436 14.4077 13.2679 14.0075 13.2679H10.1132C9.71305 13.2679 9.38867 12.9436 9.38867 12.5434V11.0591C9.38867 10.7769 9.55257 10.5203 9.80863 10.4017L13.703 8.59751C14.1831 8.37508 14.7321 8.72572 14.7321 9.25493Z" fill="url(#paint1_linear_487_35)"/>
<path d="M14.7321 9.25493V12.5434C14.7321 12.9436 14.4077 13.2679 14.0075 13.2679H10.1132C9.71305 13.2679 9.38867 12.9436 9.38867 12.5434V11.0591C9.38867 10.7769 9.55257 10.5203 9.80863 10.4017L13.703 8.59751C14.1831 8.37508 14.7321 8.72572 14.7321 9.25493Z" fill="#CF6F49" fill-opacity="0.5"/>
<path d="M1.78115 7.75846C2.28133 7.75846 2.68681 7.35299 2.68681 6.8528C2.68681 6.35262 2.28133 5.94714 1.78115 5.94714C1.28097 5.94714 0.875488 6.35262 0.875488 6.8528C0.875488 7.35299 1.28097 7.75846 1.78115 7.75846Z" fill="#939778"/>
<path d="M14.2492 7.75846C14.7493 7.75846 15.1548 7.35299 15.1548 6.8528C15.1548 6.35262 14.7493 5.94714 14.2492 5.94714C13.749 5.94714 13.3435 6.35262 13.3435 6.8528C13.3435 7.35299 13.749 7.75846 14.2492 7.75846Z" fill="#939778"/>
<path d="M7.99996 4.8604C8.58351 4.8604 9.05657 4.38734 9.05657 3.8038C9.05657 3.22025 8.58351 2.74719 7.99996 2.74719C7.41642 2.74719 6.94336 3.22025 6.94336 3.8038C6.94336 4.38734 7.41642 4.8604 7.99996 4.8604Z" fill="#939778"/>
</g>
<defs>
<linearGradient id="paint0_linear_487_35" x1="3.93952" y1="10.6868" x2="6.62631" y2="10.6868" gradientUnits="userSpaceOnUse">
<stop stop-color="#CF6F49"/>
<stop offset="1" stop-color="#F46500" stop-opacity="0"/>
</linearGradient>
<linearGradient id="paint1_linear_487_35" x1="12.0604" y1="10.6868" x2="9.37358" y2="10.6868" gradientUnits="userSpaceOnUse">
<stop stop-color="#CF6F49"/>
<stop offset="1" stop-color="#F46500" stop-opacity="0"/>
</linearGradient>
<clipPath id="clip0_487_35">
<rect width="16" height="16" fill="white"/>
</clipPath>
</defs>
</svg>
