<svg width="32" height="24" viewBox="0 0 32 24" fill="none" xmlns="http://www.w3.org/2000/svg">
<g clip-path="url(#clip0_487_54)">
<path d="M7.0022 12.0573V21.9535C7.0022 22.8503 7.72913 23.5772 8.62588 23.5772H23.3405C24.2372 23.5772 24.9641 22.8503 24.9641 21.9535V12.0591C24.9641 11.483 24.6588 10.9499 24.1618 10.6585L16.7892 6.33467C16.2812 6.03672 15.6517 6.03724 15.1441 6.33602L7.8022 10.6581C7.3065 10.9498 7.0022 11.4821 7.0022 12.0573Z" fill="#939778"/>
<path d="M0.879395 14.584V21.9535C0.879395 22.8503 1.60634 23.5772 2.50307 23.5772H11.2303C12.1271 23.5772 12.854 22.8503 12.854 21.9535V18.6271C12.854 17.9946 12.4867 17.4197 11.9129 17.1539L3.1856 13.1107C2.10951 12.6122 0.879395 13.398 0.879395 14.584Z" fill="url(#paint0_linear_487_54)"/>
<path d="M0.879395 14.584V21.9535C0.879395 22.8503 1.60634 23.5772 2.50307 23.5772H11.2303C12.1271 23.5772 12.854 22.8503 12.854 21.9535V18.6271C12.854 17.9946 12.4867 17.4197 11.9129 17.1539L3.1856 13.1107C2.10951 12.6122 0.879395 13.398 0.879395 14.584Z" fill="#CF6F49" fill-opacity="0.5"/>
<path d="M31.0528 14.584V21.9535C31.0528 22.8503 30.3258 23.5772 29.4291 23.5772H20.7018C19.8051 23.5772 19.0781 22.8503 19.0781 21.9535V18.6271C19.0781 17.9946 19.4454 17.4197 20.0193 17.1539L28.7465 13.1107C29.8226 12.6122 31.0528 13.398 31.0528 14.584Z" fill="url(#paint1_linear_487_54)"/>
<path d="M31.0528 14.584V21.9535C31.0528 22.8503 30.3258 23.5772 29.4291 23.5772H20.7018C19.8051 23.5772 19.0781 22.8503 19.0781 21.9535V18.6271C19.0781 17.9946 19.4454 17.4197 20.0193 17.1539L28.7465 13.1107C29.8226 12.6122 31.0528 13.398 31.0528 14.584Z" fill="#CF6F49" fill-opacity="0.5"/>
<path d="M2.0296 11.2305C3.15051 11.2305 4.0592 10.3218 4.0592 9.20086C4.0592 8.07995 3.15051 7.17126 2.0296 7.17126C0.908682 7.17126 0 8.07995 0 9.20086C0 10.3218 0.908682 11.2305 2.0296 11.2305Z" fill="#939778"/>
<path d="M29.9705 11.2305C31.0914 11.2305 32.0001 10.3218 32.0001 9.20086C32.0001 8.07995 31.0914 7.17126 29.9705 7.17126C28.8496 7.17126 27.9409 8.07995 27.9409 9.20086C27.9409 10.3218 28.8496 11.2305 29.9705 11.2305Z" fill="#939778"/>
<path d="M15.9663 4.73573C17.274 4.73573 18.3341 3.6756 18.3341 2.36786C18.3341 1.06013 17.274 0 15.9663 0C14.6585 0 13.5984 1.06013 13.5984 2.36786C13.5984 3.6756 14.6585 4.73573 15.9663 4.73573Z" fill="#939778"/>
</g>
<defs>
<linearGradient id="paint0_linear_487_54" x1="6.86671" y1="17.7928" x2="12.8879" y2="17.7928" gradientUnits="userSpaceOnUse">
<stop stop-color="#CF6F49"/>
<stop offset="1" stop-color="#F46500" stop-opacity="0"/>
</linearGradient>
<linearGradient id="paint1_linear_487_54" x1="25.0654" y1="17.7928" x2="19.0443" y2="17.7928" gradientUnits="userSpaceOnUse">
<stop stop-color="#CF6F49"/>
<stop offset="1" stop-color="#F46500" stop-opacity="0"/>
</linearGradient>
<clipPath id="clip0_487_54">
<rect width="32" height="23.611" fill="white"/>
</clipPath>
</defs>
</svg>
