<svg width="148" height="44" viewBox="0 0 148 44" fill="none" xmlns="http://www.w3.org/2000/svg">
<g clip-path="url(#clip0_454_176)">
<path d="M10.1191 17.3401V35.1318C10.1191 35.5904 10.4909 35.9621 10.9494 35.9621H36.8442C37.3028 35.9621 37.6745 35.5904 37.6745 35.1318V17.341C37.6745 17.0464 37.5184 16.7738 37.2643 16.6248L24.2917 9.0168C24.032 8.86444 23.71 8.8647 23.4505 9.01748L10.5283 16.6246C10.2747 16.7737 10.1191 17.046 10.1191 17.3401Z" fill="#939778"/>
<path d="M0.726562 19.5662V35.1318C0.726562 35.5904 1.0983 35.9621 1.55686 35.9621H18.2665C18.7251 35.9621 19.0968 35.5904 19.0968 35.1318V27.3074C19.0968 26.9839 18.909 26.69 18.6156 26.5541L1.90588 18.8128C1.3556 18.5579 0.726562 18.9598 0.726562 19.5662Z" fill="url(#paint0_linear_454_176)"/>
<path d="M0.726562 19.5662V35.1318C0.726562 35.5904 1.0983 35.9621 1.55686 35.9621H18.2665C18.7251 35.9621 19.0968 35.5904 19.0968 35.1318V27.3074C19.0968 26.9839 18.909 26.69 18.6156 26.5541L1.90588 18.8128C1.3556 18.5579 0.726562 18.9598 0.726562 19.5662Z" fill="#CF6F49" fill-opacity="0.5"/>
<path d="M47.0155 19.5662V35.1318C47.0155 35.5904 46.6438 35.9621 46.1852 35.9621H29.4756C29.017 35.9621 28.6453 35.5904 28.6453 35.1318V27.3074C28.6453 26.9839 28.8331 26.69 29.1265 26.5541L45.8362 18.8128C46.3865 18.5579 47.0155 18.9598 47.0155 19.5662Z" fill="url(#paint1_linear_454_176)"/>
<path d="M47.0155 19.5662V35.1318C47.0155 35.5904 46.6438 35.9621 46.1852 35.9621H29.4756C29.017 35.9621 28.6453 35.5904 28.6453 35.1318V27.3074C28.6453 26.9839 28.8331 26.69 29.1265 26.5541L45.8362 18.8128C46.3865 18.5579 47.0155 18.9598 47.0155 19.5662Z" fill="#CF6F49" fill-opacity="0.5"/>
<path d="M46.1852 38.5049H1.55686C1.0983 38.5049 0.726562 38.8766 0.726562 39.3352V42.2412C0.726562 42.6998 1.0983 43.0715 1.55686 43.0715H46.1852C46.6437 43.0715 47.0155 42.6998 47.0155 42.2412V39.3352C47.0155 38.8766 46.6437 38.5049 46.1852 38.5049Z" fill="#939778"/>
<path d="M2.59467 15.9832C4.02767 15.9832 5.18934 14.8215 5.18934 13.3885C5.18934 11.9555 4.02767 10.7938 2.59467 10.7938C1.16167 10.7938 0 11.9555 0 13.3885C0 14.8215 1.16167 15.9832 2.59467 15.9832Z" fill="#939778"/>
<path d="M45.1472 15.9832C46.5802 15.9832 47.7418 14.8215 47.7418 13.3885C47.7418 11.9555 46.5802 10.7938 45.1472 10.7938C43.7142 10.7938 42.5525 11.9555 42.5525 13.3885C42.5525 14.8215 43.7142 15.9832 45.1472 15.9832Z" fill="#939778"/>
<path d="M23.8709 6.22721C25.5905 6.22721 26.9845 4.8332 26.9845 3.1136C26.9845 1.39401 25.5905 0 23.8709 0C22.1513 0 20.7573 1.39401 20.7573 3.1136C20.7573 4.8332 22.1513 6.22721 23.8709 6.22721Z" fill="#939778"/>
<path d="M59.1087 29.5403L56.4354 20.5529H56.374C56.3843 20.7577 56.3996 21.0496 56.4201 21.4286C56.4405 21.7973 56.4559 22.2019 56.4662 22.6422C56.4867 23.0724 56.4969 23.477 56.4969 23.8559V29.5403H54.6533V18.571H57.4802L60.0919 27.1898H60.1379L62.7958 18.571H65.638V29.5403H63.7023V23.7638C63.7023 23.4156 63.7074 23.0366 63.7176 22.6269C63.7278 22.207 63.7432 21.8127 63.7637 21.4439C63.7842 21.065 63.7995 20.773 63.8098 20.5683H63.7484L60.9983 29.5403H59.1087ZM75.8362 25.8236C75.8362 26.5513 75.6839 27.21 75.379 27.8C75.0841 28.3801 74.6318 28.8423 74.0221 29.1863C73.4223 29.5207 72.6702 29.6878 71.7656 29.6878C70.4677 29.6878 69.4747 29.3339 68.7864 28.6259C68.108 27.9082 67.7688 26.9642 67.7688 25.7942V19.0098H69.7451V25.6025C69.7451 26.4579 69.9171 27.0871 70.2612 27.4902C70.6054 27.8836 71.1216 28.0803 71.8099 28.0803C72.2917 28.0803 72.6801 27.9869 72.975 27.8C73.2798 27.6132 73.501 27.333 73.6387 26.9594C73.7764 26.5759 73.8452 26.1187 73.8452 25.5877V19.0098H75.8362V25.8236ZM83.9089 29.5403L83.0977 26.7528H79.4989L78.6878 29.5403H76.564L80.1037 18.9656H82.4783L86.0326 29.5403H83.9089ZM81.7851 22.4167C81.7457 22.2594 81.6917 22.0726 81.6227 21.8563C81.5638 21.6301 81.5048 21.3991 81.4458 21.1631C81.3966 20.9272 81.3475 20.7059 81.2983 20.4994C81.259 20.7354 81.2098 20.9714 81.1508 21.2074C81.0919 21.4334 81.0328 21.6498 80.9739 21.8563C80.9247 22.0628 80.8755 22.2496 80.8264 22.4167L80.0005 25.1305H82.6257L81.7851 22.4167ZM93.5543 18.571C94.4761 18.571 95.2391 18.6632 95.8434 18.8476C96.4477 19.0216 96.8932 19.3084 97.18 19.7079C97.477 20.1074 97.6255 20.6451 97.6255 21.321C97.6255 21.741 97.5538 22.1199 97.4105 22.4579C97.2669 22.7959 97.0622 23.0724 96.796 23.2875C96.5398 23.5026 96.2429 23.646 95.9048 23.7177V23.7945C96.253 23.8662 96.5808 23.9994 96.8881 24.194C97.1953 24.3783 97.4412 24.6497 97.6255 25.0082C97.8099 25.3565 97.9021 25.8173 97.9021 26.3909C97.9021 27.0566 97.7484 27.6251 97.4412 28.0962C97.1441 28.5673 96.7139 28.9258 96.1507 29.1716C95.5873 29.4175 94.9164 29.5403 94.1381 29.5403H90.3281V18.571H93.5543ZM93.7386 23.0417C94.4043 23.0417 94.8652 22.9188 95.1214 22.673C95.3773 22.4272 95.5054 22.0635 95.5054 21.5822C95.5054 21.0906 95.3518 20.7372 95.0446 20.5222C94.7474 20.307 94.2711 20.1995 93.6157 20.1995H92.3867V23.0417H93.7386ZM92.3867 24.6242V27.8965H93.8923C94.5887 27.8965 95.07 27.7429 95.3364 27.4355C95.613 27.1283 95.7512 26.7186 95.7512 26.2065C95.7512 25.8787 95.6898 25.5972 95.5669 25.3616C95.4541 25.126 95.2596 24.9467 94.9831 24.8238C94.7065 24.6907 94.3224 24.6242 93.8309 24.6242H92.3867ZM105.677 29.5403L104.866 26.7528H101.267L100.456 29.5403H98.3322L101.872 18.9656H104.247L107.801 29.5403H105.677ZM103.553 22.4167C103.514 22.2594 103.46 22.0726 103.391 21.8563C103.332 21.6301 103.273 21.3991 103.214 21.1631C103.165 20.9272 103.116 20.7059 103.067 20.4994C103.027 20.7354 102.978 20.9714 102.919 21.2074C102.86 21.4334 102.801 21.6498 102.742 21.8563C102.693 22.0628 102.644 22.2496 102.595 22.4167L101.769 25.1305H104.394L103.553 22.4167ZM105.869 15.8536C105.741 15.9913 105.574 16.1584 105.368 16.3551C105.17 16.5517 104.949 16.7582 104.703 16.9745C104.468 17.1908 104.236 17.3973 104.01 17.594C103.784 17.7808 103.583 17.9381 103.406 18.0659H102.108V17.8742C102.265 17.6874 102.437 17.4711 102.624 17.2252C102.811 16.9696 103.003 16.709 103.199 16.4435C103.396 16.1682 103.553 15.9224 103.671 15.7061H105.869V15.8536ZM117.382 29.5403H114.889L110.45 21.2811H110.391C110.4 21.4974 110.411 21.7285 110.42 21.9743C110.43 22.2103 110.44 22.4561 110.45 22.7117C110.47 22.9576 110.484 23.2082 110.494 23.4639C110.504 23.7196 110.509 23.9752 110.509 24.2308V29.5403H108.738V19.0098H111.217L115.641 27.21H115.701C115.69 27.0134 115.681 26.802 115.67 26.5759C115.661 26.3399 115.651 26.099 115.641 25.8532C115.631 25.6073 115.622 25.3566 115.612 25.101C115.602 24.8453 115.597 24.5996 115.597 24.3636V19.0098H117.382V29.5403ZM126.223 18.571C127.299 18.571 128.22 18.7759 128.988 19.1855C129.768 19.5953 130.367 20.1995 130.786 20.9984C131.206 21.787 131.416 22.7703 131.416 23.9481C131.416 25.1772 131.196 26.2065 130.756 27.0362C130.325 27.8657 129.7 28.4905 128.881 28.9105C128.062 29.3304 127.084 29.5403 125.947 29.5403H122.951V24.9314H121.968V23.3029H122.951V18.571H126.223ZM126.208 20.1995H125.01V23.3029H126.946V24.9314H125.01V27.8965H125.977C127.084 27.8965 127.908 27.5687 128.451 26.9132C128.994 26.2578 129.265 25.2848 129.265 23.9942C129.265 23.1339 129.143 22.4221 128.897 21.8588C128.661 21.2954 128.318 20.8806 127.867 20.6144C127.417 20.3378 126.864 20.1995 126.208 20.1995ZM138.125 18.0659C137.898 17.8988 137.663 17.7168 137.417 17.5202C137.18 17.3137 136.939 17.0974 136.693 16.8713C136.449 17.0974 136.207 17.3137 135.971 17.5202C135.736 17.7168 135.499 17.8988 135.263 18.0659H134.231V17.8889C134.388 17.7021 134.55 17.4956 134.717 17.2694C134.884 17.0433 135.052 16.8172 135.219 16.5911C135.396 16.3551 135.554 16.1289 135.691 15.9126H137.712C137.859 16.1289 138.017 16.3551 138.184 16.5911C138.351 16.8172 138.518 17.0433 138.685 17.2694C138.852 17.4956 139.014 17.7021 139.172 17.8889V18.0659H138.125ZM138.567 16.4878C138.754 16.2616 138.917 16.0404 139.054 15.8241C139.201 15.6078 139.348 15.3423 139.496 15.0276H141.074V15.1751C140.877 15.4603 140.642 15.7307 140.366 15.9863C140.091 16.2322 139.826 16.4583 139.569 16.6648H138.567V16.4878ZM139.29 29.5403L138.479 26.7528H134.88L134.069 29.5403H131.945L135.484 18.9656H137.859L141.414 29.5403H139.29ZM137.166 22.4167C137.126 22.2594 137.072 22.0726 137.004 21.8563C136.945 21.6301 136.885 21.3991 136.826 21.1631C136.778 20.9272 136.729 20.7059 136.679 20.4994C136.64 20.7354 136.591 20.9714 136.532 21.2074C136.472 21.4334 136.413 21.6498 136.355 21.8563C136.305 22.0628 136.257 22.2496 136.207 22.4167L135.382 25.1305H138.006L137.166 22.4167ZM145.118 29.5403H143.127V20.6026H140.384V19.0098H147.846V20.6026H145.118V29.5403Z" fill="#2A2C1F"/>
<path d="M87.2295 32.5715L85.2861 38.6046H84.027L82.092 32.5715H83.3003L84.3566 36.2641C84.3847 36.3655 84.4185 36.4979 84.458 36.6611C84.503 36.8189 84.5425 36.9823 84.5763 37.1512C84.6157 37.3146 84.6438 37.4611 84.6608 37.5907C84.6777 37.4611 84.703 37.3146 84.7368 37.1512C84.7763 36.988 84.8156 36.8245 84.8552 36.6611C84.8946 36.4979 84.9311 36.3655 84.965 36.2641L86.0127 32.5715H87.2295ZM91.7722 34.0249V38.6046H90.9104L90.7668 38.0131H90.7076C90.6174 38.1709 90.5019 38.3005 90.3612 38.4019C90.2202 38.4975 90.0654 38.568 89.8964 38.6131C89.7274 38.6637 89.5528 38.6891 89.3725 38.6891C89.057 38.6891 88.7838 38.63 88.5529 38.5117C88.3218 38.3933 88.1416 38.2132 88.0121 37.9708C87.8881 37.7231 87.8262 37.4048 87.8262 37.0161V34.0249H88.9501V36.8048C88.9501 37.1428 89.0062 37.3991 89.119 37.5737C89.2373 37.7427 89.4232 37.8272 89.6767 37.8272C89.9302 37.8272 90.1273 37.768 90.2682 37.6498C90.4146 37.5258 90.516 37.3483 90.5724 37.1175C90.6286 36.8866 90.6568 36.602 90.6568 36.2641V34.0249H91.7722ZM88.2487 33.4925C88.2656 33.2897 88.2994 33.1151 88.3501 32.9686C88.4063 32.8166 88.4739 32.6897 88.5529 32.5883C88.6374 32.4869 88.7331 32.411 88.8402 32.3602C88.9528 32.3096 89.0795 32.2841 89.2204 32.2841C89.3218 32.2841 89.4259 32.3068 89.533 32.3518C89.6456 32.3967 89.7528 32.4504 89.8542 32.5124C89.9611 32.5742 90.0625 32.6279 90.1584 32.6729C90.2598 32.7179 90.3554 32.7405 90.4456 32.7405C90.5301 32.7405 90.6062 32.701 90.6738 32.6222C90.7413 32.5434 90.7892 32.4279 90.8174 32.2757H91.3752C91.3413 32.6701 91.237 32.9714 91.0624 33.1798C90.8935 33.3826 90.6793 33.484 90.4203 33.484C90.3075 33.484 90.1949 33.4615 90.0823 33.4165C89.9752 33.3714 89.8682 33.3179 89.7612 33.2559C89.6598 33.194 89.5584 33.1404 89.457 33.0953C89.3612 33.0504 89.2655 33.0278 89.1697 33.0278C89.0907 33.0278 89.0176 33.0672 88.9501 33.1461C88.888 33.2194 88.8402 33.3347 88.8064 33.4925H88.2487ZM95.4932 33.9404C95.9721 33.9404 96.3493 34.0728 96.6255 34.3375C96.9016 34.6022 97.0395 35.0303 97.0395 35.6218V38.6046H95.9157V35.8331C95.9157 35.4894 95.8566 35.2331 95.7382 35.0642C95.6199 34.8895 95.434 34.8022 95.1806 34.8022C94.8031 34.8022 94.5469 34.9375 94.4116 35.2078C94.2764 35.4725 94.2088 35.8585 94.2088 36.3655V38.6046H93.085V34.0249H93.9469L94.1074 34.6247H94.1497C94.2511 34.467 94.3694 34.3375 94.5045 34.2361C94.6398 34.1347 94.7919 34.0614 94.9609 34.0163C95.1298 33.9657 95.3073 33.9404 95.4932 33.9404ZM99.7635 33.9404C100.045 33.9404 100.29 33.9967 100.499 34.1093C100.707 34.2219 100.882 34.3909 101.023 34.6163H101.056L101.158 34.0249H102.104V38.6384C102.104 39.0721 102.025 39.4355 101.868 39.7285C101.71 40.027 101.473 40.2523 101.158 40.4044C100.848 40.5565 100.453 40.6325 99.9748 40.6325C99.6537 40.6325 99.3607 40.6099 99.0961 40.565C98.8368 40.5254 98.5891 40.4551 98.3524 40.3537V39.4749C98.5158 39.5482 98.682 39.6101 98.851 39.6608C99.0255 39.7172 99.2059 39.7595 99.3917 39.7876C99.5776 39.8156 99.7747 39.8299 99.9832 39.8299C100.31 39.8299 100.558 39.7312 100.727 39.5341C100.901 39.337 100.989 39.0552 100.989 38.6891V38.5708C100.989 38.4863 100.992 38.3876 100.997 38.275C101.008 38.1624 101.017 38.0722 101.023 38.0047H100.989C100.854 38.2413 100.685 38.416 100.482 38.5286C100.279 38.6357 100.034 38.6891 99.7467 38.6891C99.234 38.6891 98.8284 38.4806 98.5299 38.0638C98.2369 37.647 98.0905 37.0667 98.0905 36.3232C98.0905 35.8218 98.1581 35.3937 98.2933 35.0389C98.4285 34.6839 98.6199 34.4135 98.8678 34.2277C99.1214 34.0361 99.4199 33.9404 99.7635 33.9404ZM100.102 34.8106C99.91 34.8106 99.7494 34.8698 99.6199 34.9881C99.4959 35.1007 99.4003 35.2697 99.3326 35.4951C99.265 35.7204 99.2312 36.0021 99.2312 36.34C99.2312 36.8358 99.3044 37.2104 99.4509 37.4639C99.5973 37.7174 99.8171 37.8441 100.11 37.8441C100.279 37.8441 100.423 37.8216 100.541 37.7765C100.659 37.7258 100.755 37.647 100.828 37.5399C100.901 37.4273 100.958 37.2865 100.997 37.1175C101.037 36.9427 101.056 36.7344 101.056 36.4922V36.3316C101.056 35.9656 101.023 35.6726 100.955 35.4529C100.893 35.2274 100.792 35.0642 100.651 34.9628C100.51 34.8614 100.327 34.8106 100.102 34.8106ZM107.798 38.6046H106.658V33.484H105.086V32.5715H109.362V33.484H107.798V38.6046ZM111.471 33.9404C112.023 33.9404 112.446 34.0699 112.739 34.3291C113.031 34.5825 113.179 34.9824 113.179 35.5289V38.6046H112.392L112.173 37.9708H112.139C112.015 38.1342 111.889 38.2723 111.759 38.3849C111.629 38.4919 111.48 38.568 111.31 38.6131C111.141 38.6637 110.939 38.6891 110.702 38.6891C110.449 38.6891 110.221 38.6384 110.018 38.537C109.815 38.4356 109.655 38.2807 109.537 38.0722C109.418 37.8582 109.359 37.5907 109.359 37.2695C109.359 36.7964 109.522 36.4414 109.849 36.2049C110.176 35.9626 110.666 35.8303 111.319 35.8077L112.055 35.7824V35.5543C112.055 35.2613 111.992 35.053 111.869 34.9289C111.744 34.805 111.575 34.7431 111.361 34.7431C111.159 34.7431 110.953 34.7769 110.745 34.8445C110.541 34.912 110.342 34.9909 110.145 35.0811L109.798 34.3375C110.029 34.2191 110.285 34.1235 110.567 34.0502C110.849 33.9769 111.151 33.9404 111.471 33.9404ZM111.581 36.4583C111.181 36.4753 110.903 36.557 110.745 36.7034C110.587 36.8443 110.508 37.0357 110.508 37.2779C110.508 37.492 110.561 37.647 110.668 37.7427C110.781 37.8384 110.927 37.8863 111.108 37.8863C111.373 37.8863 111.598 37.7991 111.784 37.6244C111.969 37.4442 112.063 37.1794 112.063 36.8301V36.4414L111.581 36.4583ZM111.235 32.0729C111.308 32.197 111.398 32.3377 111.504 32.4955C111.618 32.6475 111.728 32.7968 111.835 32.9433C111.948 33.0841 112.046 33.2079 112.13 33.3151V33.4249H111.387C111.286 33.3516 111.167 33.2616 111.032 33.1545C110.903 33.0419 110.77 32.9236 110.635 32.7997C110.5 32.6756 110.373 32.5573 110.255 32.4447C110.142 32.3321 110.049 32.2363 109.976 32.1574V32.0729H111.235ZM118.371 34.0249V38.6046H117.51L117.365 38.0131H117.306C117.216 38.1709 117.101 38.3005 116.96 38.4019C116.819 38.4975 116.665 38.568 116.496 38.6131C116.326 38.6637 116.152 38.6891 115.971 38.6891C115.656 38.6891 115.383 38.63 115.152 38.5117C114.921 38.3933 114.741 38.2132 114.611 37.9708C114.487 37.7231 114.425 37.4048 114.425 37.0161V34.0249H115.549V36.8048C115.549 37.1428 115.605 37.3991 115.718 37.5737C115.837 37.7427 116.022 37.8272 116.276 37.8272C116.529 37.8272 116.726 37.768 116.867 37.6498C117.014 37.5258 117.115 37.3483 117.171 37.1175C117.227 36.8866 117.255 36.602 117.255 36.2641V34.0249H118.371Z" fill="#939778"/>
</g>
<defs>
<linearGradient id="paint0_linear_454_176" x1="9.9117" y1="27.0884" x2="19.1487" y2="27.0884" gradientUnits="userSpaceOnUse">
<stop stop-color="#CF6F49"/>
<stop offset="1" stop-color="#F46500" stop-opacity="0"/>
</linearGradient>
<linearGradient id="paint1_linear_454_176" x1="37.8304" y1="27.0884" x2="28.5934" y2="27.0884" gradientUnits="userSpaceOnUse">
<stop stop-color="#CF6F49"/>
<stop offset="1" stop-color="#F46500" stop-opacity="0"/>
</linearGradient>
<clipPath id="clip0_454_176">
<rect width="148" height="43.0715" fill="white"/>
</clipPath>
</defs>
</svg>
